<mxfile host="app.diagrams.net" agent="Mozilla/5.0 (Windows NT 10.0; Win64; x64) AppleWebKit/537.36 (KHTML, like Gecko) Chrome/127.0.0.0 Safari/537.36 Edg/127.0.0.0" version="24.7.7">
  <diagram name="Page-1" id="Kv8rrR23jFhMCYZxjhDc">
    <mxGraphModel grid="1" page="1" gridSize="10" guides="1" tooltips="1" connect="1" arrows="1" fold="1" pageScale="1" pageWidth="850" pageHeight="1100" math="0" shadow="0">
      <root>
        <mxCell id="0" />
        <mxCell id="1" parent="0" />
        <mxCell id="VyQ45PpAER-ii8X1HK3b-1" value="&lt;b&gt;&lt;u&gt;MVP - Requirements&lt;/u&gt;&lt;/b&gt;&lt;div&gt;File (document) share app - a place for users to store and share their documents. The app will not have any document editing capabilities.&lt;/div&gt;&lt;div&gt;&lt;br&gt;&lt;/div&gt;&lt;div&gt;&lt;span style=&quot;background-color: initial;&quot;&gt;- Users can sign up or login with Google&lt;/span&gt;&lt;/div&gt;&lt;div&gt;&lt;span style=&quot;background-color: initial;&quot;&gt;- They can CRUD file&lt;/span&gt;&lt;/div&gt;&lt;div&gt;&lt;span style=&quot;background-color: initial;&quot;&gt;- They can share it via email&lt;/span&gt;&lt;/div&gt;&lt;div&gt;&lt;span style=&quot;background-color: initial;&quot;&gt;&amp;nbsp; - They can email it to multiple recipients&lt;/span&gt;&lt;/div&gt;&lt;div&gt;&lt;br&gt;&lt;/div&gt;&lt;div&gt;&lt;b&gt;&lt;i&gt;Post MVP&lt;/i&gt;&lt;/b&gt;&lt;/div&gt;&lt;div&gt;&lt;i style=&quot;font-weight: bold;&quot;&gt;- &lt;/i&gt;They can add connections and get notified of their activities&lt;/div&gt;&lt;div&gt;&lt;span style=&quot;background-color: initial;&quot;&gt;- They can co-own, so deleting requires approval&lt;/span&gt;&lt;br&gt;&lt;/div&gt;&lt;div&gt;- Button click revels gist of the document&lt;/div&gt;&lt;div&gt;- They can schedule emails to share later&lt;/div&gt;&lt;div&gt;- A service to periodically crawl the web&amp;nbsp;&lt;/div&gt;&lt;div&gt;&lt;br&gt;&lt;/div&gt;&lt;div&gt;&lt;br&gt;&lt;/div&gt;" style="rounded=0;whiteSpace=wrap;html=1;align=left;verticalAlign=top;" vertex="1" parent="1">
          <mxGeometry width="350" height="240" as="geometry" />
        </mxCell>
        <mxCell id="VyQ45PpAER-ii8X1HK3b-41" value="" style="edgeStyle=orthogonalEdgeStyle;rounded=0;orthogonalLoop=1;jettySize=auto;html=1;entryX=0.16;entryY=0.55;entryDx=0;entryDy=0;entryPerimeter=0;" edge="1" parent="1" source="VyQ45PpAER-ii8X1HK3b-17" target="VyQ45PpAER-ii8X1HK3b-49">
          <mxGeometry relative="1" as="geometry">
            <mxPoint x="490" y="578" as="targetPoint" />
          </mxGeometry>
        </mxCell>
        <mxCell id="VyQ45PpAER-ii8X1HK3b-17" value="&lt;b&gt;Load&lt;/b&gt;&lt;div&gt;&lt;b&gt;Balancer&lt;/b&gt;&lt;/div&gt;" style="outlineConnect=0;dashed=0;verticalLabelPosition=bottom;verticalAlign=top;align=center;html=1;shape=mxgraph.aws3.classic_load_balancer;fillColor=#F58534;gradientColor=none;" vertex="1" parent="1">
          <mxGeometry x="150" y="370" width="69" height="72" as="geometry" />
        </mxCell>
        <mxCell id="VyQ45PpAER-ii8X1HK3b-47" value="" style="edgeStyle=orthogonalEdgeStyle;rounded=0;orthogonalLoop=1;jettySize=auto;html=1;" edge="1" parent="1" source="VyQ45PpAER-ii8X1HK3b-63" target="VyQ45PpAER-ii8X1HK3b-46">
          <mxGeometry relative="1" as="geometry">
            <mxPoint x="52" y="528" as="sourcePoint" />
          </mxGeometry>
        </mxCell>
        <mxCell id="VyQ45PpAER-ii8X1HK3b-78" value="UPLOAD" style="edgeLabel;html=1;align=center;verticalAlign=middle;resizable=0;points=[];fontStyle=1" connectable="0" vertex="1" parent="VyQ45PpAER-ii8X1HK3b-47">
          <mxGeometry x="-0.0526" y="-3" relative="1" as="geometry">
            <mxPoint as="offset" />
          </mxGeometry>
        </mxCell>
        <mxCell id="VyQ45PpAER-ii8X1HK3b-23" value="&lt;div&gt;Metadata&lt;/div&gt;DB" style="shape=cylinder3;whiteSpace=wrap;html=1;boundedLbl=1;backgroundOutline=1;size=15;fontStyle=1" vertex="1" parent="1">
          <mxGeometry x="490" y="210" width="60" height="80" as="geometry" />
        </mxCell>
        <mxCell id="VyQ45PpAER-ii8X1HK3b-33" value="&lt;div style=&quot;font-size: 14px;&quot;&gt;&lt;u&gt;&lt;b style=&quot;background-color: initial;&quot;&gt;User API&amp;nbsp;&amp;nbsp;&lt;/b&gt;&lt;br&gt;&lt;/u&gt;&lt;/div&gt;&lt;div style=&quot;font-size: 14px;&quot;&gt;&lt;span style=&quot;background-color: initial;&quot;&gt;&lt;br&gt;&lt;/span&gt;&lt;/div&gt;&lt;div style=&quot;font-size: 14px;&quot;&gt;&lt;span style=&quot;background-color: initial;&quot;&gt;&lt;u&gt;CRUD endpoints &amp;amp;&lt;/u&gt;&lt;/span&gt;&lt;/div&gt;&lt;div style=&quot;font-size: 14px;&quot;&gt;&lt;span style=&quot;background-color: initial;&quot;&gt;&lt;br&gt;&lt;/span&gt;&lt;/div&gt;&lt;div style=&quot;font-size: 14px;&quot;&gt;/api/user/files&lt;/div&gt;&lt;div style=&quot;font-size: 14px;&quot;&gt;/api/user/username&lt;/div&gt;&lt;div style=&quot;font-size: 14px;&quot;&gt;/api/user/share&lt;/div&gt;&lt;div style=&quot;font-size: 14px;&quot;&gt;&lt;br&gt;&lt;/div&gt;&lt;div style=&quot;font-size: 14px;&quot;&gt;&lt;b&gt;&lt;u&gt;Auth API&lt;/u&gt;&lt;/b&gt;&lt;/div&gt;&lt;div style=&quot;font-size: 14px;&quot;&gt;&lt;b&gt;&lt;br&gt;&lt;/b&gt;&lt;/div&gt;&lt;div style=&quot;font-size: 14px;&quot;&gt;/api/auth/login&lt;/div&gt;&lt;div style=&quot;font-size: 14px;&quot;&gt;&lt;span style=&quot;background-color: initial;&quot;&gt;/api/auth/token/new&lt;/span&gt;&lt;br&gt;&lt;/div&gt;&lt;div style=&quot;font-size: 14px;&quot;&gt;&lt;br&gt;&lt;/div&gt;" style="whiteSpace=wrap;html=1;shape=mxgraph.basic.document;verticalAlign=top;align=left;fontSize=14;" vertex="1" parent="1">
          <mxGeometry x="340" y="715" width="140" height="230" as="geometry" />
        </mxCell>
        <mxCell id="VyQ45PpAER-ii8X1HK3b-40" value="" style="edgeStyle=orthogonalEdgeStyle;rounded=0;orthogonalLoop=1;jettySize=auto;html=1;entryX=1;entryY=0.5;entryDx=0;entryDy=0;" edge="1" parent="1">
          <mxGeometry relative="1" as="geometry">
            <mxPoint x="500" y="530" as="sourcePoint" />
            <mxPoint x="450" y="598" as="targetPoint" />
          </mxGeometry>
        </mxCell>
        <mxCell id="VyQ45PpAER-ii8X1HK3b-48" value="" style="edgeStyle=orthogonalEdgeStyle;rounded=0;orthogonalLoop=1;jettySize=auto;html=1;entryX=0;entryY=0.5;entryDx=0;entryDy=0;entryPerimeter=0;" edge="1" parent="1" source="VyQ45PpAER-ii8X1HK3b-46" target="VyQ45PpAER-ii8X1HK3b-17">
          <mxGeometry relative="1" as="geometry">
            <mxPoint x="220" y="580" as="targetPoint" />
          </mxGeometry>
        </mxCell>
        <mxCell id="VyQ45PpAER-ii8X1HK3b-46" value="" style="image;aspect=fixed;html=1;points=[];align=center;fontSize=12;image=img/lib/azure2/networking/DNS_Zones.svg;" vertex="1" parent="1">
          <mxGeometry x="40" y="460" width="64" height="64" as="geometry" />
        </mxCell>
        <mxCell id="VyQ45PpAER-ii8X1HK3b-49" value="&lt;b&gt;Services&lt;/b&gt;" style="ellipse;shape=cloud;whiteSpace=wrap;html=1;verticalAlign=top;" vertex="1" parent="1">
          <mxGeometry x="240" y="390" width="430" height="330" as="geometry" />
        </mxCell>
        <mxCell id="VyQ45PpAER-ii8X1HK3b-54" value="" style="edgeStyle=orthogonalEdgeStyle;rounded=0;orthogonalLoop=1;jettySize=auto;html=1;" edge="1" parent="1" source="VyQ45PpAER-ii8X1HK3b-51">
          <mxGeometry relative="1" as="geometry">
            <mxPoint x="410" y="290" as="targetPoint" />
          </mxGeometry>
        </mxCell>
        <mxCell id="VyQ45PpAER-ii8X1HK3b-56" value="" style="edgeStyle=orthogonalEdgeStyle;rounded=0;orthogonalLoop=1;jettySize=auto;html=1;entryX=0.633;entryY=1.025;entryDx=0;entryDy=0;entryPerimeter=0;" edge="1" parent="1" source="VyQ45PpAER-ii8X1HK3b-51" target="VyQ45PpAER-ii8X1HK3b-23">
          <mxGeometry relative="1" as="geometry">
            <mxPoint x="515" y="512" as="targetPoint" />
            <Array as="points">
              <mxPoint x="480" y="526" />
              <mxPoint x="480" y="310" />
              <mxPoint x="528" y="310" />
            </Array>
          </mxGeometry>
        </mxCell>
        <mxCell id="VyQ45PpAER-ii8X1HK3b-51" value="Storage + Metadata&lt;div&gt;Service&lt;/div&gt;" style="rounded=1;whiteSpace=wrap;html=1;fontStyle=1" vertex="1" parent="1">
          <mxGeometry x="330" y="496" width="120" height="60" as="geometry" />
        </mxCell>
        <mxCell id="VyQ45PpAER-ii8X1HK3b-52" value="User + Auth&lt;div&gt;Service&lt;/div&gt;" style="rounded=1;whiteSpace=wrap;html=1;fontStyle=1" vertex="1" parent="1">
          <mxGeometry x="330" y="584" width="120" height="60" as="geometry" />
        </mxCell>
        <mxCell id="VyQ45PpAER-ii8X1HK3b-57" value="&lt;div style=&quot;font-size: 14px;&quot;&gt;&lt;font style=&quot;font-size: 14px;&quot;&gt;&lt;b&gt;&lt;u style=&quot;&quot;&gt;FileMetadata API&lt;/u&gt;&lt;/b&gt;&lt;/font&gt;&lt;/div&gt;&lt;div style=&quot;font-size: 14px;&quot;&gt;&lt;font style=&quot;font-size: 14px;&quot;&gt;&lt;b&gt;&lt;br&gt;&lt;/b&gt;&lt;/font&gt;&lt;/div&gt;&lt;div style=&quot;font-size: 14px;&quot;&gt;FileMetadata - CRUD&lt;/div&gt;&lt;div style=&quot;font-size: 14px;&quot;&gt;&lt;br&gt;&lt;/div&gt;&lt;div style=&quot;font-size: 14px;&quot;&gt;&lt;b&gt;&lt;u&gt;File Storage API&lt;/u&gt;&lt;/b&gt;&lt;/div&gt;&lt;div style=&quot;font-size: 14px;&quot;&gt;&lt;br&gt;&lt;/div&gt;&lt;div style=&quot;font-size: 14px;&quot;&gt;/api/file/upload&lt;br&gt;&lt;/div&gt;&lt;div style=&quot;font-size: 14px;&quot;&gt;/api/file/update&lt;/div&gt;&lt;div style=&quot;font-size: 14px;&quot;&gt;/api/file/list&amp;nbsp;&lt;/div&gt;&lt;div style=&quot;font-size: 14px;&quot;&gt;(by username)&lt;/div&gt;&lt;div style=&quot;font-size: 14px;&quot;&gt;&lt;br&gt;&lt;/div&gt;" style="whiteSpace=wrap;html=1;shape=mxgraph.basic.document;verticalAlign=top;align=left;fontSize=14;" vertex="1" parent="1">
          <mxGeometry x="502.5" y="720" width="150" height="220" as="geometry" />
        </mxCell>
        <mxCell id="VyQ45PpAER-ii8X1HK3b-80" value="" style="edgeStyle=orthogonalEdgeStyle;rounded=0;orthogonalLoop=1;jettySize=auto;html=1;" edge="1" parent="1" source="VyQ45PpAER-ii8X1HK3b-58" target="VyQ45PpAER-ii8X1HK3b-59">
          <mxGeometry relative="1" as="geometry">
            <mxPoint x="530" y="470" as="targetPoint" />
            <Array as="points">
              <mxPoint x="540" y="380" />
              <mxPoint x="410" y="380" />
            </Array>
          </mxGeometry>
        </mxCell>
        <mxCell id="VyQ45PpAER-ii8X1HK3b-58" value="&lt;div&gt;Download&amp;nbsp;&lt;/div&gt;&lt;div&gt;Service&lt;/div&gt;" style="rounded=1;whiteSpace=wrap;html=1;labelBorderColor=none;labelBackgroundColor=default;spacing=5;textShadow=0;dashed=1;fontStyle=1" vertex="1" parent="1">
          <mxGeometry x="490" y="496" width="120" height="60" as="geometry" />
        </mxCell>
        <mxCell id="VyQ45PpAER-ii8X1HK3b-59" value="&lt;b&gt;File Store&lt;/b&gt;" style="sketch=0;outlineConnect=0;fontColor=#232F3E;gradientColor=none;fillColor=#7AA116;strokeColor=none;dashed=0;verticalLabelPosition=bottom;verticalAlign=top;align=center;html=1;fontSize=12;fontStyle=0;aspect=fixed;pointerEvents=1;shape=mxgraph.aws4.bucket;" vertex="1" parent="1">
          <mxGeometry x="375" y="210" width="75" height="78" as="geometry" />
        </mxCell>
        <mxCell id="VyQ45PpAER-ii8X1HK3b-62" value="&lt;div style=&quot;font-size: 14px;&quot;&gt;&lt;b&gt;&lt;u&gt;Download Service&lt;/u&gt;&lt;/b&gt;&lt;/div&gt;&lt;div style=&quot;font-size: 14px;&quot;&gt;&lt;i&gt;Not part of MVP&lt;/i&gt;&lt;/div&gt;&lt;div style=&quot;font-size: 14px;&quot;&gt;&lt;i&gt;&lt;br&gt;&lt;/i&gt;&lt;/div&gt;&lt;div style=&quot;font-size: 14px;&quot;&gt;/api/{file-id}/download&lt;/div&gt;&lt;div style=&quot;font-size: 14px;&quot;&gt;&lt;br&gt;&lt;/div&gt;" style="whiteSpace=wrap;html=1;shape=mxgraph.basic.document;verticalAlign=top;align=left;fontSize=14;" vertex="1" parent="1">
          <mxGeometry x="80" y="760" width="180.5" height="110" as="geometry" />
        </mxCell>
        <mxCell id="VyQ45PpAER-ii8X1HK3b-63" value="" style="shape=actor;whiteSpace=wrap;html=1;" vertex="1" parent="1">
          <mxGeometry x="52" y="600" width="40" height="60" as="geometry" />
        </mxCell>
        <mxCell id="VyQ45PpAER-ii8X1HK3b-76" value="" style="edgeStyle=orthogonalEdgeStyle;rounded=0;orthogonalLoop=1;jettySize=auto;html=1;entryX=0.88;entryY=0.25;entryDx=0;entryDy=0;entryPerimeter=0;" edge="1" parent="1" source="VyQ45PpAER-ii8X1HK3b-65" target="VyQ45PpAER-ii8X1HK3b-49">
          <mxGeometry relative="1" as="geometry">
            <mxPoint x="694.5" y="528" as="targetPoint" />
            <Array as="points">
              <mxPoint x="695" y="330" />
              <mxPoint x="640" y="330" />
              <mxPoint x="640" y="370" />
              <mxPoint x="618" y="370" />
            </Array>
          </mxGeometry>
        </mxCell>
        <mxCell id="VvOUiQ97nhpLtqyPDfNt-9" value="" style="edgeStyle=orthogonalEdgeStyle;rounded=0;orthogonalLoop=1;jettySize=auto;html=1;entryX=1;entryY=0.5;entryDx=0;entryDy=0;" edge="1" parent="1" source="VyQ45PpAER-ii8X1HK3b-65" target="VvOUiQ97nhpLtqyPDfNt-1">
          <mxGeometry relative="1" as="geometry">
            <mxPoint x="585.5" y="406" as="targetPoint" />
          </mxGeometry>
        </mxCell>
        <mxCell id="VyQ45PpAER-ii8X1HK3b-65" value="&lt;b&gt;Load&amp;nbsp;&lt;/b&gt;&lt;div&gt;&lt;b&gt;Balancer&lt;/b&gt;&lt;/div&gt;" style="outlineConnect=0;dashed=0;verticalLabelPosition=bottom;verticalAlign=top;align=center;html=1;shape=mxgraph.aws3.classic_load_balancer;fillColor=#F58534;gradientColor=none;" vertex="1" parent="1">
          <mxGeometry x="660" y="370" width="69" height="72" as="geometry" />
        </mxCell>
        <mxCell id="VyQ45PpAER-ii8X1HK3b-66" value="" style="edgeStyle=orthogonalEdgeStyle;rounded=0;orthogonalLoop=1;jettySize=auto;html=1;" edge="1" parent="1" source="VyQ45PpAER-ii8X1HK3b-69" target="VyQ45PpAER-ii8X1HK3b-68">
          <mxGeometry relative="1" as="geometry">
            <mxPoint x="742" y="560" as="sourcePoint" />
          </mxGeometry>
        </mxCell>
        <mxCell id="VyQ45PpAER-ii8X1HK3b-77" value="&lt;b&gt;DOWNLOAD&lt;/b&gt;" style="edgeLabel;html=1;align=center;verticalAlign=middle;resizable=0;points=[];" connectable="0" vertex="1" parent="VyQ45PpAER-ii8X1HK3b-66">
          <mxGeometry x="0.1842" y="-2" relative="1" as="geometry">
            <mxPoint as="offset" />
          </mxGeometry>
        </mxCell>
        <mxCell id="VyQ45PpAER-ii8X1HK3b-72" value="" style="edgeStyle=orthogonalEdgeStyle;rounded=0;orthogonalLoop=1;jettySize=auto;html=1;entryX=1;entryY=0.5;entryDx=0;entryDy=0;entryPerimeter=0;" edge="1" parent="1" source="VyQ45PpAER-ii8X1HK3b-68" target="VyQ45PpAER-ii8X1HK3b-65">
          <mxGeometry relative="1" as="geometry">
            <mxPoint x="783" y="380" as="targetPoint" />
          </mxGeometry>
        </mxCell>
        <mxCell id="VvOUiQ97nhpLtqyPDfNt-7" value="" style="edgeStyle=orthogonalEdgeStyle;rounded=0;orthogonalLoop=1;jettySize=auto;html=1;entryX=0.145;entryY=0.855;entryDx=0;entryDy=0;entryPerimeter=0;" edge="1" parent="1" source="VyQ45PpAER-ii8X1HK3b-68" target="VyQ45PpAER-ii8X1HK3b-65">
          <mxGeometry relative="1" as="geometry">
            <mxPoint x="783" y="378" as="targetPoint" />
          </mxGeometry>
        </mxCell>
        <mxCell id="VyQ45PpAER-ii8X1HK3b-68" value="" style="image;aspect=fixed;html=1;points=[];align=center;fontSize=12;image=img/lib/azure2/networking/DNS_Zones.svg;" vertex="1" parent="1">
          <mxGeometry x="751" y="460" width="64" height="64" as="geometry" />
        </mxCell>
        <mxCell id="VyQ45PpAER-ii8X1HK3b-69" value="" style="shape=actor;whiteSpace=wrap;html=1;" vertex="1" parent="1">
          <mxGeometry x="790" y="600" width="40" height="60" as="geometry" />
        </mxCell>
        <mxCell id="VvOUiQ97nhpLtqyPDfNt-1" value="Social Service" style="rounded=1;whiteSpace=wrap;html=1;fontStyle=1" vertex="1" parent="1">
          <mxGeometry x="490" y="584" width="120" height="60" as="geometry" />
        </mxCell>
        <mxCell id="VvOUiQ97nhpLtqyPDfNt-4" value="" style="edgeStyle=orthogonalEdgeStyle;rounded=0;orthogonalLoop=1;jettySize=auto;html=1;entryX=0;entryY=0.656;entryDx=0;entryDy=0;entryPerimeter=0;" edge="1" parent="1" source="VvOUiQ97nhpLtqyPDfNt-2" target="VyQ45PpAER-ii8X1HK3b-68">
          <mxGeometry relative="1" as="geometry">
            <Array as="points">
              <mxPoint x="740" y="630" />
              <mxPoint x="740" y="580" />
              <mxPoint x="690" y="580" />
              <mxPoint x="690" y="555" />
              <mxPoint x="751" y="555" />
            </Array>
          </mxGeometry>
        </mxCell>
        <mxCell id="VvOUiQ97nhpLtqyPDfNt-5" value="&lt;b&gt;SHARE&lt;/b&gt;" style="edgeLabel;html=1;align=center;verticalAlign=middle;resizable=0;points=[];" connectable="0" vertex="1" parent="VvOUiQ97nhpLtqyPDfNt-4">
          <mxGeometry x="-0.3082" y="-3" relative="1" as="geometry">
            <mxPoint as="offset" />
          </mxGeometry>
        </mxCell>
        <mxCell id="VvOUiQ97nhpLtqyPDfNt-2" value="" style="shape=actor;whiteSpace=wrap;html=1;" vertex="1" parent="1">
          <mxGeometry x="689" y="600" width="40" height="60" as="geometry" />
        </mxCell>
        <mxCell id="VvOUiQ97nhpLtqyPDfNt-3" value="&lt;div style=&quot;font-size: 14px;&quot;&gt;&lt;font style=&quot;font-size: 14px;&quot;&gt;&lt;u style=&quot;&quot;&gt;&lt;b&gt;Social API&lt;/b&gt;&lt;/u&gt;&lt;/font&gt;&lt;/div&gt;&lt;div style=&quot;font-size: 14px;&quot;&gt;&lt;font style=&quot;font-size: 14px;&quot;&gt;&lt;b&gt;&lt;br&gt;&lt;/b&gt;&lt;/font&gt;&lt;/div&gt;&lt;div style=&quot;font-size: 14px;&quot;&gt;/api/social/sendMail&lt;/div&gt;" style="whiteSpace=wrap;html=1;shape=mxgraph.basic.document;verticalAlign=top;align=left;fontSize=14;" vertex="1" parent="1">
          <mxGeometry x="665" y="770" width="150" height="120" as="geometry" />
        </mxCell>
      </root>
    </mxGraphModel>
  </diagram>
</mxfile>
